<svg version="1" xmlns="http://www.w3.org/2000/svg" width="714.667" height="714.667" viewBox="0 0 536.000000 536.000000"><path d="M376.8 103.2l-.3 103.1-4.4-5.8c-9.8-13-27.6-28.1-42.2-35.8-15-7.9-28.7-12-46.3-14.1-28.1-3.2-54.4.9-76.8 11.9-46.7 23.1-76.2 70.5-86.2 138.5-2.8 18.9-2.9 66-.2 82 .2 1.4 1 5.9 1.6 10 3.9 24.7 13.9 53.3 25.9 73.8 19.4 33.3 53 59.1 85.6 65.7 17.8 3.6 44.8 4.1 60 1.1 33.4-6.7 61-23.4 81.2-49.1l3.1-3.9.2 7.9c.1 4.4.3 10.7.5 14 .1 3.3.4 10.6.5 16.2l.2 10.3H418V0h-41l-.2 103.2zm-86.7 83.2c19.3 3 38.7 11.6 52.5 23.2 12.4 10.6 22.7 23.2 30.3 37.6l4.1 7.6V436l-3.2 5.8c-10.7 19.3-28.4 36.4-47.8 46.2-7.1 3.6-20.9 8.4-26.8 9.4-12.8 2.2-18.3 2.7-28.7 2.5-29-.6-50.1-9.4-69.5-28.9-9.5-9.4-15.5-17.9-22.3-31.5-6.6-13.1-13.1-33.8-15.2-48-.5-3.8-.9-6.2-2-13-2.2-13.7-2.3-55.8-.1-69.5.2-1.4 1-6.3 1.6-11 6.2-43 26.2-78.2 55.1-97 13.7-8.8 28.1-13.7 44.9-15.3 5.4-.4 22.1 0 27.1.7z"/></svg>